# xmcd
#
# Track frame offsets:
#	150
#	20827
#	40213
#	54431
#
# Disc length: 1148 seconds
#
# Revision: 1
# Processed by: cddbd v1.4PL0 Copyright (c) Steve Scherf et al.
# Submitted via: EasyCDDAExtractor 5.1.0
#
DISCID=2e047a04
DTITLE=Zen Cafe - Eipä Tiennyt Tyttö -cds
DYEAR=2001
DGENRE=
TTITLE0=Eipä Tiennyt Tyttö
TTITLE1=Maailman Helpoin Asia
TTITLE2=Teit Minut Eilen
TTITLE3=Kannattaako Tunnustaa Jos Pettää - Remix
EXTD=
EXTT0=
EXTT1=
EXTT2=
EXTT3=
PLAYORDER=
